
<svg width="34" height="34" viewBox="0 0 34 34" fill="none" xmlns="http://www.w3.org/2000/svg">
<g id="streamline:bill-1-solid" clip-path="url(#clip0_171_217)">
<path id="Vector" fill-rule="evenodd" clip-rule="evenodd" d="M3.64286 0C1.69757 0 0 1.50571 0 3.50929V17.2817C0 19.2829 1.69757 20.791 3.64286 20.791H30.3571C32.3049 20.791 34 19.2853 34 17.2817V3.51171C34 1.50571 32.3049 0 30.3571 0H3.64286ZM17 6.01557C16.4248 6.01557 15.8553 6.12886 15.3239 6.34897C14.7925 6.56909 14.3096 6.89171 13.9029 7.29842C13.4962 7.70514 13.1736 8.18798 12.9535 8.71937C12.7334 9.25077 12.6201 9.82032 12.6201 10.3955C12.6201 10.9707 12.7334 11.5402 12.9535 12.0716C13.1736 12.603 13.4962 13.0859 13.9029 13.4926C14.3096 13.8993 14.7925 14.2219 15.3239 14.442C15.8553 14.6621 16.4248 14.7754 17 14.7754C18.1616 14.7754 19.2757 14.314 20.0971 13.4926C20.9185 12.6712 21.3799 11.5571 21.3799 10.3955C21.3799 9.23387 20.9185 8.11982 20.0971 7.29842C19.2757 6.47703 18.1616 6.01557 17 6.01557ZM8.57043 10.9334C8.57043 11.4178 8.37802 11.8823 8.03552 12.2248C7.69303 12.5673 7.2285 12.7597 6.74414 12.7597C6.25978 12.7597 5.79526 12.5673 5.45276 12.2248C5.11027 11.8823 4.91786 11.4178 4.91786 10.9334C4.91786 10.4491 5.11027 9.98454 5.45276 9.64205C5.79526 9.29955 6.25978 9.10714 6.74414 9.10714C7.2285 9.10714 7.69303 9.29955 8.03552 9.64205C8.37802 9.98454 8.57043 10.4491 8.57043 10.9334ZM27.2559 12.7597C27.7402 12.7597 28.2047 12.5673 28.5472 12.2248C28.8897 11.8823 29.0821 11.4178 29.0821 10.9334C29.0821 10.4491 28.8897 9.98454 28.5472 9.64205C28.2047 9.29955 27.7402 9.10714 27.2559 9.10714C26.7715 9.10714 26.307 9.29955 25.9645 9.64205C25.622 9.98454 25.4296 10.4491 25.4296 10.9334C25.4296 11.4178 25.622 11.8823 25.9645 12.2248C26.307 12.5673 26.7715 12.7597 27.2559 12.7597ZM2.63743 25.6457C2.63743 25.1626 2.82933 24.6994 3.17091 24.3578C3.5125 24.0162 3.97578 23.8243 4.45886 23.8243H29.5436C30.0266 23.8243 30.4899 24.0162 30.8315 24.3578C31.1731 24.6994 31.365 25.1626 31.365 25.6457C31.365 26.1288 31.1731 26.5921 30.8315 26.9337C30.4899 27.2752 30.0266 27.4671 29.5436 27.4671H4.45643C3.97336 27.4671 3.51007 27.2752 3.16848 26.9337C2.8269 26.5921 2.63743 26.1288 2.63743 25.6457ZM6.73929 30.2746C6.25621 30.2746 5.79293 30.4665 5.45134 30.8081C5.10976 31.1496 4.91786 31.6129 4.91786 32.096C4.91786 32.5791 5.10976 33.0424 5.45134 33.3839C5.79293 33.7255 6.25621 33.9174 6.73929 33.9174H27.2607C27.7438 33.9174 28.2071 33.7255 28.5487 33.3839C28.8902 33.0424 29.0821 32.5791 29.0821 32.096C29.0821 31.6129 28.8902 31.1496 28.5487 30.8081C28.2071 30.4665 27.7438 30.2746 27.2607 30.2746H6.73929Z" fill="#132128"/>
</g>
<defs>
<clipPath id="clip0_171_217">
<rect width="34" height="34" fill="white"/>
</clipPath>
</defs>
</svg>
