<svg width="43" height="43" viewBox="0 0 43 43" fill="none" xmlns="http://www.w3.org/2000/svg">
<path d="M10.7498 39.4166H32.2498C32.5688 39.4166 32.8733 39.3628 33.1672 39.284L26.4323 32.5491C24.9714 33.5223 23.2552 34.0416 21.4998 34.0416C16.5602 34.0416 12.5415 30.0229 12.5415 25.0833C12.5415 20.1436 16.5602 16.1249 21.4998 16.1249C26.4395 16.1249 30.4582 20.1436 30.4582 25.0833C30.4584 26.8387 29.9391 28.5549 28.9657 30.0157L35.7006 36.7506C35.7794 36.4568 35.8332 36.1522 35.8332 35.8333V14.3333L25.0832 3.58325H10.7498C9.79948 3.58325 8.88804 3.96078 8.21604 4.63279C7.54403 5.30479 7.1665 6.21623 7.1665 7.16659V35.8333C7.1665 36.7836 7.54403 37.695 8.21604 38.3671C8.88804 39.0391 9.79948 39.4166 10.7498 39.4166Z" fill="#132128"/>
<path d="M21.5 30.4583C24.4685 30.4583 26.875 28.0518 26.875 25.0833C26.875 22.1147 24.4685 19.7083 21.5 19.7083C18.5315 19.7083 16.125 22.1147 16.125 25.0833C16.125 28.0518 18.5315 30.4583 21.5 30.4583Z" fill="#132128"/>
</svg>
