<svg width="48" height="48" viewBox="0 0 48 48" fill="none" xmlns="http://www.w3.org/2000/svg">
<circle cx="24.289" cy="19.0844" r="10.4096" fill="#132128"/>
<path fillRule="evenodd" clipRule="evenodd" d="M6 20C6 10.0589 14.0589 2 24 2C33.9412 2 42 10.0589 42 20C42 26.2382 38.5122 30.731 34.9426 34.4488C34.0814 35.346 33.193 36.2196 32.3342 37.0642L32.2228 37.1738C31.3216 38.0602 30.4548 38.915 29.6384 39.7756C27.997 41.5052 26.6568 43.1584 25.7888 44.8944C25.45 45.572 24.7576 46 24 46C23.2424 46 22.55 45.572 22.2112 44.8944C21.3432 43.1584 20.003 41.5052 18.3617 39.7756C17.5452 38.915 16.6785 38.0602 15.7773 37.1738L15.6656 37.064C14.8068 36.2194 13.9186 35.346 13.0573 34.4488C9.48774 30.731 6 26.2382 6 20ZM30 19C30 22.3138 27.3138 25 24 25C20.6862 25 18 22.3138 18 19C18 15.6863 20.6862 13 24 13C27.3138 13 30 15.6863 30 19Z" fill="#132128"/>
<path fillRule="evenodd" clipRule="evenodd" d="M17.6666 14.375C17.517 14.375 17.3836 14.4787 17.3321 14.6347L16.4185 17.4099C16.3897 17.4976 16.375 17.5894 16.375 17.6818V18.7858C16.375 19.41 16.8306 19.9167 17.3927 19.9167C17.9548 19.9167 18.4108 19.41 18.4108 18.7858C18.4108 19.4104 18.8664 19.9167 19.4285 19.9167C19.9905 19.9167 20.4465 19.41 20.4465 18.7858C20.4465 19.4104 20.9021 19.9167 21.4642 19.9167C22.0263 19.9167 22.4815 19.4108 22.4823 18.7866C22.4823 19.4108 22.9379 19.9167 23.5 19.9167C24.0621 19.9167 24.5177 19.41 24.5177 18.7858C24.5177 19.4104 24.9737 19.9167 25.5358 19.9167C26.0979 19.9167 26.5531 19.4108 26.5535 18.7866C26.5539 19.4108 27.0095 19.9167 27.5715 19.9167C28.1336 19.9167 28.5892 19.41 28.5892 18.7858C28.5892 19.4104 29.0448 19.9167 29.6073 19.9167C30.1694 19.9167 30.625 19.41 30.625 18.7858V17.6818C30.625 17.5894 30.6103 17.4976 30.5815 17.4099L29.6679 14.6351C29.6164 14.4787 29.483 14.375 29.3334 14.375H17.6666Z" fill="#E8ECEE"/>
<path fillRule="evenodd" clipRule="evenodd" d="M17.9585 20.4035V23.4791H16.9689C16.9164 23.4791 16.8661 23.4999 16.829 23.5371C16.7918 23.5742 16.771 23.6245 16.771 23.677V24.0728C16.771 24.1253 16.7918 24.1757 16.829 24.2128C16.8661 24.2499 16.9164 24.2708 16.9689 24.2708H30.0314C30.0839 24.2708 30.1342 24.2499 30.1714 24.2128C30.2085 24.1757 30.2293 24.1253 30.2293 24.0728V23.677C30.2293 23.6245 30.2085 23.5742 30.1714 23.5371C30.1342 23.4999 30.0839 23.4791 30.0314 23.4791H29.0418V20.4035C28.8761 20.3374 28.7231 20.2433 28.5894 20.1252C28.4868 20.2157 28.3727 20.2923 28.2502 20.3532V23.4791H18.7502V20.3532C18.6276 20.2923 18.5136 20.2157 18.4109 20.1252C18.2779 20.242 18.1259 20.337 17.9585 20.4035ZM28.2502 19.6288C28.2838 19.5952 28.3155 19.5591 28.3452 19.5208H28.2502V19.6288ZM28.8336 19.5208C28.8935 19.5983 28.9635 19.6674 29.0418 19.7262V19.5208H28.8336ZM17.9585 19.7262C18.0372 19.6678 18.1073 19.5987 18.1667 19.5208H17.9585V19.7262ZM18.6552 19.5208H18.7502V19.6288C18.7162 19.5949 18.6844 19.5588 18.6552 19.5208ZM17.3647 25.0624C17.3123 25.0624 17.2619 25.0833 17.2248 25.1204C17.1877 25.1575 17.1668 25.2078 17.1668 25.2603V28.2291C17.1668 28.3341 17.2085 28.4347 17.2828 28.509C17.357 28.5832 17.4577 28.6249 17.5627 28.6249H29.4377C29.5426 28.6249 29.6433 28.5832 29.7176 28.509C29.7918 28.4347 29.8335 28.3341 29.8335 28.2291V25.2603C29.8335 25.2078 29.8126 25.1575 29.7755 25.1204C29.7384 25.0833 29.6881 25.0624 29.6356 25.0624H17.3647Z" fill="#E8ECEE"/>
<path d="M19.5415 22.4897C19.5415 22.4372 19.5624 22.3868 19.5995 22.3497C19.6366 22.3126 19.6869 22.2917 19.7394 22.2917H20.9269C20.9794 22.2917 21.0298 22.3126 21.0669 22.3497C21.104 22.3868 21.1248 22.4372 21.1248 22.4897V23.2813C21.1248 23.3338 21.104 23.3842 21.0669 23.4213C21.0298 23.4584 20.9794 23.4792 20.9269 23.4792H19.7394C19.6869 23.4792 19.6366 23.4584 19.5995 23.4213C19.5624 23.3842 19.5415 23.3338 19.5415 23.2813V22.4897Z" fill="#E8ECEE"/>
<path d="M20.3335 22.8855C20.3335 22.833 20.3543 22.7827 20.3915 22.7455C20.4286 22.7084 20.4789 22.6876 20.5314 22.6876H21.7189C21.7714 22.6876 21.8217 22.7084 21.8589 22.7455C21.896 22.7827 21.9168 22.833 21.9168 22.8855V23.2813C21.9168 23.3338 21.896 23.3842 21.8589 23.4213C21.8217 23.4584 21.7714 23.4792 21.7189 23.4792H20.5314C20.4789 23.4792 20.4286 23.4584 20.3915 23.4213C20.3543 23.3842 20.3335 23.3338 20.3335 23.2813V22.8855ZM23.5002 22.8855C23.5002 23.043 23.4376 23.194 23.3263 23.3053C23.2149 23.4167 23.0639 23.4792 22.9064 23.4792C22.7489 23.4792 22.5979 23.4167 22.4866 23.3053C22.3752 23.194 22.3127 23.043 22.3127 22.8855C22.3127 22.728 22.3752 22.577 22.4866 22.4657C22.5979 22.3543 22.7489 22.2917 22.9064 22.2917C23.0639 22.2917 23.2149 22.3543 23.3263 22.4657C23.4376 22.577 23.5002 22.728 23.5002 22.8855Z" fill="#E8ECEE"/>
</svg>
