<svg width="41" height="41" viewBox="0 0 41 41" fill="none" xmlns="http://www.w3.org/2000/svg">
  <path fill-rule="evenodd" clip-rule="evenodd" d="M30.4739 3.41675H10.5257C9.62515 3.41672 8.84822 3.4167 8.20833 3.46897C7.53296 3.52415 6.86121 3.64599 6.21481 3.97534C5.25047 4.46669 4.46645 5.25071 3.9751 6.21505C3.64575 6.86145 3.52391 7.5332 3.46873 8.20857C3.41645 8.84846 3.41647 9.62533 3.41651 10.5258V30.4742C3.41647 31.3748 3.41645 32.1518 3.46873 32.7915C3.52391 33.467 3.64575 34.1387 3.9751 34.7852C4.46645 35.7495 5.25047 36.5335 6.21481 37.0248C6.86121 37.3542 7.53296 37.476 8.20833 37.5311C8.84822 37.5834 9.6251 37.5834 10.5256 37.5834H30.4741C31.3746 37.5834 32.1515 37.5834 32.7913 37.5311C33.4668 37.476 34.1385 37.3542 34.7849 37.0248C35.7493 36.5335 36.5332 35.7495 37.0246 34.7852C37.3539 34.1387 37.4757 33.467 37.5309 32.7915C37.5832 32.1518 37.5832 31.3748 37.5832 30.4744V10.5259C37.5832 9.62535 37.5832 8.84846 37.5309 8.20857C37.4757 7.5332 37.3539 6.86145 37.0246 6.21505C36.5332 5.25071 35.7493 4.46669 34.7849 3.97534C34.1385 3.64599 33.4668 3.52415 32.7913 3.46897C32.1515 3.4167 31.3746 3.41672 30.4739 3.41675ZM29.0415 11.9584C29.0415 11.0149 28.2767 10.2501 27.3332 10.2501C26.3897 10.2501 25.6248 11.0149 25.6248 11.9584V29.0417C25.6248 29.9853 26.3897 30.7501 27.3332 30.7501C28.2767 30.7501 29.0415 29.9853 29.0415 29.0417V11.9584ZM20.4998 17.0834C21.4434 17.0834 22.2082 17.8482 22.2082 18.7917V29.0417C22.2082 29.9853 21.4434 30.7501 20.4998 30.7501C19.5563 30.7501 18.7915 29.9853 18.7915 29.0417V18.7917C18.7915 17.8482 19.5563 17.0834 20.4998 17.0834ZM13.6665 23.9167C14.61 23.9167 15.3748 24.6816 15.3748 25.6251V29.0417C15.3748 29.9853 14.61 30.7501 13.6665 30.7501C12.723 30.7501 11.9582 29.9853 11.9582 29.0417V25.6251C11.9582 24.6816 12.723 23.9167 13.6665 23.9167Z" fill="#132128"/>
</svg>