<svg width="44" height="44" viewBox="0 0 44 44" fill="none" xmlns="http://www.w3.org/2000/svg">
<path d="M32.7038 40.3334H11.2958C10.3294 40.3334 9.49566 40.3334 8.80895 40.2773C8.08416 40.2181 7.36326 40.0874 6.66956 39.7339C5.63466 39.2066 4.79327 38.3653 4.26597 37.3304C4.07811 36.9615 3.95315 36.5852 3.86841 36.2046C3.82241 35.998 3.7994 35.8946 3.81084 35.756C3.8199 35.646 3.86172 35.5022 3.91305 35.4047C3.97781 35.2815 4.06993 35.1895 4.25418 35.0052L14.6665 24.5928L17.8631 27.7894C18.0174 27.9437 18.2018 28.1284 18.3775 28.2776C18.581 28.4503 18.8901 28.6806 19.3168 28.8192C19.869 28.9986 20.4641 28.9986 21.0163 28.8192C21.4429 28.6806 21.752 28.4503 21.9555 28.2776C22.1313 28.1284 22.3155 27.9439 22.4699 27.7894L29.3332 20.9261V23.8334C29.3332 24.846 30.154 25.6667 31.1665 25.6667C32.1791 25.6667 32.9998 24.846 32.9998 23.8334V16.5001C32.9998 15.4876 32.1791 14.6667 31.1665 14.6667H23.8332C22.8206 14.6667 21.9998 15.4876 21.9998 16.5001C21.9998 17.5126 22.8206 18.3334 23.8332 18.3334H26.7405L20.1665 24.9074L16.97 21.7108C16.8156 21.5564 16.6313 21.3718 16.4555 21.2227C16.2519 21.0499 15.9428 20.8196 15.5163 20.681C14.964 20.5015 14.369 20.5015 13.8167 20.681C13.3902 20.8196 13.0811 21.0499 12.8775 21.2227C12.7018 21.3718 12.5175 21.5562 12.3632 21.7106L6.17027 27.9036C5.38491 28.689 4.99223 29.0817 4.65509 29.1081C4.36257 29.1312 4.0767 29.0128 3.88614 28.7896C3.66651 28.5324 3.66651 27.9771 3.66651 26.8665V11.2961C3.66647 10.3297 3.66645 9.49591 3.72255 8.80919C3.78177 8.0844 3.91252 7.3635 4.26597 6.6698C4.79327 5.63491 5.63466 4.79352 6.66956 4.26621C7.36326 3.91277 8.08416 3.78201 8.80895 3.72279C9.49566 3.66669 10.3294 3.66671 11.2958 3.66675H32.7039C33.6703 3.66671 34.5041 3.66669 35.1907 3.72279C35.9156 3.78201 36.6364 3.91277 37.3302 4.26621C38.3651 4.79352 39.2064 5.63491 39.7337 6.6698C40.0871 7.3635 40.2179 8.0844 40.2771 8.80919C40.3332 9.49591 40.3332 10.3296 40.3332 11.296V32.7042C40.3332 33.6705 40.3332 34.5043 40.2771 35.1909C40.2179 35.9158 40.0871 36.6367 39.7337 37.3304C39.2064 38.3653 38.3651 39.2066 37.3302 39.7339C36.6364 40.0874 35.9156 40.2181 35.1907 40.2773C34.5041 40.3334 33.6703 40.3334 32.7038 40.3334Z" fill="#132128"/>
</svg>
