<svg width="39" height="39" viewBox="0 0 39 39" fill="none" xmlns="http://www.w3.org/2000/svg">
<path fillRule="evenodd" clipRule="evenodd" d="M36.8992 24.8509C37.5337 25.4855 37.5337 26.5144 36.8992 27.149L30.3992 33.649C29.7644 34.2836 28.7356 34.2836 28.1009 33.649L24.8509 30.399C24.2164 29.7644 24.2164 28.7355 24.8509 28.1009C25.4856 27.4664 26.5144 27.4664 27.1492 28.1009L29.25 30.2019L34.6009 24.8509C35.2356 24.2164 36.2644 24.2164 36.8992 24.8509Z" fill="#132128"/>
<path fillRule="evenodd" clipRule="evenodd" d="M11.0274 23.5625C13.4308 23.563 15.8343 23.5635 18.2377 23.5625C18.4313 23.5624 18.6625 23.5624 18.8661 23.5789C19.1021 23.5983 19.4401 23.6477 19.7942 23.8282C20.2529 24.0619 20.6257 24.4348 20.8595 24.8934C21.0399 25.2477 21.0895 25.5857 21.1086 25.8216C21.1254 26.0252 21.1252 26.2565 21.1252 26.45C21.1244 28.5875 21.1244 30.725 21.1252 32.8626C21.1252 33.0563 21.1254 33.2873 21.1086 33.491C21.0895 33.7271 21.0399 34.0649 20.8595 34.4192C20.6257 34.8777 20.2529 35.2507 19.7942 35.4843C19.4401 35.6649 19.1021 35.7143 18.8661 35.7336C18.6625 35.7502 18.4313 35.7502 18.2377 35.75C13.562 35.7484 8.8854 35.7252 4.20972 35.7502C4.09374 35.7508 3.86064 35.752 3.63936 35.713C2.6302 35.535 1.8401 34.745 1.66216 33.7358C1.62314 33.5145 1.62438 33.2815 1.625 33.1655C1.63011 32.2053 1.58107 31.2265 1.74856 30.2767C2.3417 26.9128 4.97539 24.2792 8.33924 23.686C9.0419 23.562 9.84654 23.5622 11.0274 23.5625Z" fill="#132128"/>
<path fillRule="evenodd" clipRule="evenodd" d="M7.3125 12.1875C7.3125 7.25145 11.3139 3.25 16.2501 3.25C21.186 3.25 25.1876 7.25145 25.1876 12.1875C25.1876 17.1236 21.186 21.125 16.2501 21.125C11.3139 21.125 7.3125 17.1236 7.3125 12.1875Z" fill="#132128"/>
</svg>
